<?xml version="1.0" encoding="UTF-8" standalone="no"?>
<!-- Generator: Adobe Illustrator 18.0.0, SVG Export Plug-In . SVG Version: 6.00 Build 0)  -->

<svg
   xmlns:dc="http://purl.org/dc/elements/1.1/"
   xmlns:cc="http://creativecommons.org/ns#"
   xmlns:rdf="http://www.w3.org/1999/02/22-rdf-syntax-ns#"
   xmlns:svg="http://www.w3.org/2000/svg"
   xmlns="http://www.w3.org/2000/svg"
   xmlns:sodipodi="http://sodipodi.sourceforge.net/DTD/sodipodi-0.dtd"
   xmlns:inkscape="http://www.inkscape.org/namespaces/inkscape"
   version="1.1"
   id="Capa_1"
   x="0px"
   y="0px"
   viewBox="0 0 28 28"
   xml:space="preserve"
   inkscape:version="0.48.5 r10040"
   width="100%"
   height="100%"
   sodipodi:docname="add_line_plot.svg"><metadata
     id="metadata3279"><rdf:RDF><cc:Work
         rdf:about=""><dc:format>image/svg+xml</dc:format><dc:type
           rdf:resource="http://purl.org/dc/dcmitype/StillImage" /></cc:Work></rdf:RDF></metadata><defs
     id="defs3277" /><sodipodi:namedview
     pagecolor="#ffffff"
     bordercolor="#666666"
     borderopacity="1"
     objecttolerance="10"
     gridtolerance="10"
     guidetolerance="10"
     inkscape:pageopacity="0"
     inkscape:pageshadow="2"
     inkscape:window-width="1426"
     inkscape:window-height="862"
     id="namedview3275"
     showgrid="false"
     inkscape:zoom="23.392857"
     inkscape:cx="14"
     inkscape:cy="14"
     inkscape:window-x="0"
     inkscape:window-y="0"
     inkscape:window-maximized="0"
     inkscape:current-layer="Capa_1" /><g
     id="g3237"
     transform="matrix(0.07446809,0,0,0.07446809,0,1.1170195)"><path
       d="M 366,339.2659 H 20 V -4.132924 c 0,-6.001872 -4.477,-10.867051 -10,-10.867051 -5.523,0 -10,4.865179 -10,10.867051 V 350.13294 C 0,356.13482 4.477,361 10,361 h 356 c 5.523,0 10,-4.86518 10,-10.86706 0,-6.00187 -4.477,-10.86704 -10,-10.86704 z"
       id="path3239"
       inkscape:connector-curvature="0" /><path
       d="m 29.758,290.26886 h 316.484 c 0.552,0 1,-0.448 1,-1 0,-0.552 -0.448,-1 -1,-1 H 29.758 c -0.552,0 -1,0.448 -1,1 0,0.552 0.448,1 1,1 z"
       id="path3241"
       inkscape:connector-curvature="0" /><path
       d="m 28.758,229.26886 c 0,0.552 0.448,1 1,1 h 36.187 l 55.228,26.46 c 0.694,0.333 1.431,0.492 2.158,0.492 1.656,0 3.264,-0.825 4.211,-2.301 l 15.821,-24.651 h 202.879 c 0.552,0 1,-0.448 1,-1 0,-0.552 -0.448,-1 -1,-1 H 144.646 l 32.876,-51.224 43.374,39.217 c 1.852,1.674 4.655,1.727 6.568,0.121 l 54.789,-45.988 27.58,17.389 c 2.335,1.472 5.423,0.772 6.896,-1.563 1.473,-2.336 0.773,-5.424 -1.563,-6.896 l -14.364,-9.056 h 45.439 c 0.552,0 1,-0.448 1,-1 0,-0.552 -0.448,-1 -1,-1 H 297.63 l -13.131,-8.278 c -1.839,-1.158 -4.216,-0.998 -5.881,0.4 l -9.386,7.878 h -86.506 l -2.873,-2.598 c -1.09,-0.985 -2.555,-1.44 -4.014,-1.247 -1.457,0.193 -2.754,1.02 -3.547,2.256 l -1.02,1.589 h -16.795 l 28.811,-58 h 49.539 l 4.27,8.835 c 1.281,2.649 3.842,4.449 6.77,4.754 2.93,0.305 5.805,-0.926 7.606,-3.253 l 7.996,-10.336 h 42.243 l 3.85,5.44 c 2.712,3.831 8.016,4.74 11.849,2.027 2.494,-1.765 3.74,-4.627 3.565,-7.468 h 25.267 c 0.552,0 1,-0.448 1,-1 0,-0.552 -0.448,-1 -1,-1 h -25.629 c -0.259,-0.829 -0.646,-1.634 -1.174,-2.38 L 288.774,62.553859 c -1.557,-2.199 -4.064,-3.531 -6.758,-3.588 -2.7,-0.078 -5.255,1.166 -6.904,3.297 l -28.684,37.08 -23.72,-49.074 h 123.535 c 0.552,0 1,-0.448 1,-1 0,-0.552 -0.448,-1 -1,-1 H 221.741 l -5.588,-11.561 c -1.412,-2.921 -4.363,-4.783 -7.607,-4.801 -3.271,0.013 -6.215,1.813 -7.658,4.719 l -5.783,11.643 H 29.758 c -0.552,0 -1,0.448 -1,1 0,0.552 0.448,1 1,1 H 194.111 L 165.3,108.26886 H 128.549 L 117.794,86.183859 c -1.42,-2.916 -4.376,-4.77 -7.619,-4.779 -0.008,0 -0.015,0 -0.023,0 -3.234,0 -6.189,1.836 -7.622,4.738 L 91.606,108.26886 H 29.758 c -0.552,0 -1,0.448 -1,1 0,0.552 0.448,1 1,1 h 60.861 l -28.634,58 H 29.758 c -0.552,0 -1,0.448 -1,1 0,0.552 0.448,1 1,1 h 31.24 l -5.119,10.368 c -2.078,4.209 -0.351,9.307 3.859,11.385 1.209,0.598 2.493,0.881 3.756,0.881 3.133,0 6.147,-1.74 7.628,-4.74 l 8.834,-17.894 h 60.155 c 1.586,1.931 3.957,3.107 6.522,3.118 0.011,0 0.022,0 0.033,0 2.575,0 4.96,-1.178 6.554,-3.118 h 16.768 l -37.224,58 H 84.915 l -19.254,-9.226 c -2.491,-1.193 -5.477,-0.141 -6.67,2.35 -1.193,2.49 -0.142,5.477 2.349,6.67 l 0.431,0.206 H 29.758 c -0.552,0 -1,0.448 -1,1 z M 281.53,81.749859 300.297,108.26886 H 261.016 L 281.53,81.749859 z m -73.134,-22.026 23.464,48.545001 h -47.579 l 24.115,-48.545001 z m -44.089,50.545001 -17.564,35.358 -17.219,-35.358 h 34.783 z m -54.729,0 h 1.037 l 28.245,58 H 80.943 l 28.635,-58 z m 157.272,60 -42.478,35.653 -39.434,-35.653 h 81.912 z m -135.37,60 -9.969,15.534 -32.422,-15.534 h 42.391 z"
       id="path3243"
       inkscape:connector-curvature="0" /></g><g
     id="g3245"
     transform="translate(0,-348)" /><g
     id="g3247"
     transform="translate(0,-348)" /><g
     id="g3249"
     transform="translate(0,-348)" /><g
     id="g3251"
     transform="translate(0,-348)" /><g
     id="g3253"
     transform="translate(0,-348)" /><g
     id="g3255"
     transform="translate(0,-348)" /><g
     id="g3257"
     transform="translate(0,-348)" /><g
     id="g3259"
     transform="translate(0,-348)" /><g
     id="g3261"
     transform="translate(0,-348)" /><g
     id="g3263"
     transform="translate(0,-348)" /><g
     id="g3265"
     transform="translate(0,-348)" /><g
     id="g3267"
     transform="translate(0,-348)" /><g
     id="g3269"
     transform="translate(0,-348)" /><g
     id="g3271"
     transform="translate(0,-348)" /><g
     id="g3273"
     transform="translate(0,-348)" /></svg>