<?xml version="1.0" encoding="UTF-8" standalone="no"?>
<!-- Generator: Adobe Illustrator 18.0.0, SVG Export Plug-In . SVG Version: 6.00 Build 0)  -->

<svg
   xmlns:dc="http://purl.org/dc/elements/1.1/"
   xmlns:cc="http://creativecommons.org/ns#"
   xmlns:rdf="http://www.w3.org/1999/02/22-rdf-syntax-ns#"
   xmlns:svg="http://www.w3.org/2000/svg"
   xmlns="http://www.w3.org/2000/svg"
   xmlns:sodipodi="http://sodipodi.sourceforge.net/DTD/sodipodi-0.dtd"
   xmlns:inkscape="http://www.inkscape.org/namespaces/inkscape"
   version="1.1"
   id="Capa_1"
   x="0px"
   y="0px"
   viewBox="0 0 28 28"
   xml:space="preserve"
   inkscape:version="0.48.5 r10040"
   width="100%"
   height="100%"
   sodipodi:docname="recorder.svg"><metadata
     id="metadata45"><rdf:RDF><cc:Work
         rdf:about=""><dc:format>image/svg+xml</dc:format><dc:type
           rdf:resource="http://purl.org/dc/dcmitype/StillImage" /><dc:title /></cc:Work></rdf:RDF></metadata><defs
     id="defs43" /><sodipodi:namedview
     pagecolor="#ffffff"
     bordercolor="#666666"
     borderopacity="1"
     objecttolerance="10"
     gridtolerance="10"
     guidetolerance="10"
     inkscape:pageopacity="0"
     inkscape:pageshadow="2"
     inkscape:window-width="1440"
     inkscape:window-height="855"
     id="namedview41"
     showgrid="false"
     inkscape:zoom="25.920001"
     inkscape:cx="14.000001"
     inkscape:cy="14.000004"
     inkscape:window-x="0"
     inkscape:window-y="0"
     inkscape:window-maximized="0"
     inkscape:current-layer="Capa_1" /><g
     id="g3"
     transform="matrix(1.12,0,0,1.12,-1.68,-391.43999)"><path
       sodipodi:type="arc"
       style="fill:none;stroke:#000000;stroke-width:28.00261688;stroke-linecap:square;stroke-miterlimit:4;stroke-opacity:1;stroke-dasharray:none;stroke-dashoffset:0"
       id="path3041"
       sodipodi:cx="181.62712"
       sodipodi:cy="214.28813"
       sodipodi:rx="133.83051"
       sodipodi:ry="128.25424"
       d="m 315.45763,214.28813 c 0,70.83286 -59.91796,128.25424 -133.83051,128.25424 -73.91255,0 -133.830504,-57.42138 -133.830504,-128.25424 0,-70.83286 59.917954,-128.25424 133.830504,-128.25424 73.91255,0 133.83051,57.42138 133.83051,128.25424 z"
       transform="matrix(0.08438366,0,0,0.0880525,-1.3263607,343.13139)" /><path
       transform="matrix(0.02463748,0,0,0.02570867,9.5251655,356.49093)"
       d="m 315.45763,214.28813 c 0,70.83286 -59.91796,128.25424 -133.83051,128.25424 -73.91255,0 -133.830504,-57.42138 -133.830504,-128.25424 0,-70.83286 59.917954,-128.25424 133.830504,-128.25424 73.91255,0 133.83051,57.42138 133.83051,128.25424 z"
       sodipodi:ry="128.25424"
       sodipodi:rx="133.83051"
       sodipodi:cy="214.28813"
       sodipodi:cx="181.62712"
       id="path3811"
       style="fill:#000000;fill-opacity:1;fill-rule:nonzero;stroke:#000000;stroke-width:82.20796204;stroke-linecap:square;stroke-miterlimit:4;stroke-opacity:1;stroke-dasharray:none;stroke-dashoffset:0"
       sodipodi:type="arc" /></g><g
     id="g11"
     transform="translate(0,-348)" /><g
     id="g13"
     transform="translate(0,-348)" /><g
     id="g15"
     transform="translate(0,-348)" /><g
     id="g17"
     transform="translate(0,-348)" /><g
     id="g19"
     transform="translate(0,-348)" /><g
     id="g21"
     transform="translate(0,-348)" /><g
     id="g23"
     transform="translate(0,-348)" /><g
     id="g25"
     transform="translate(0,-348)" /><g
     id="g27"
     transform="translate(0,-348)" /><g
     id="g29"
     transform="translate(0,-348)" /><g
     id="g31"
     transform="translate(0,-348)" /><g
     id="g33"
     transform="translate(0,-348)" /><g
     id="g35"
     transform="translate(0,-348)" /><g
     id="g37"
     transform="translate(0,-348)" /><g
     id="g39"
     transform="translate(0,-348)" /></svg>