<?xml version="1.0" encoding="UTF-8" standalone="no"?>
<!-- Generator: Adobe Illustrator 18.1.1, SVG Export Plug-In . SVG Version: 6.00 Build 0)  -->

<svg
   xmlns:dc="http://purl.org/dc/elements/1.1/"
   xmlns:cc="http://creativecommons.org/ns#"
   xmlns:rdf="http://www.w3.org/1999/02/22-rdf-syntax-ns#"
   xmlns:svg="http://www.w3.org/2000/svg"
   xmlns="http://www.w3.org/2000/svg"
   xmlns:sodipodi="http://sodipodi.sourceforge.net/DTD/sodipodi-0.dtd"
   xmlns:inkscape="http://www.inkscape.org/namespaces/inkscape"
   version="1.1"
   id="Capa_1"
   x="0px"
   y="0px"
   viewBox="0 0 28 28"
   xml:space="preserve"
   inkscape:version="0.48.5 r10040"
   width="100%"
   height="100%"
   sodipodi:docname="reload_backend.svg"><metadata
     id="metadata4037"><rdf:RDF><cc:Work
         rdf:about=""><dc:format>image/svg+xml</dc:format><dc:type
           rdf:resource="http://purl.org/dc/dcmitype/StillImage" /></cc:Work></rdf:RDF></metadata><defs
     id="defs4035" /><sodipodi:namedview
     pagecolor="#ffffff"
     bordercolor="#666666"
     borderopacity="1"
     objecttolerance="10"
     gridtolerance="10"
     guidetolerance="10"
     inkscape:pageopacity="0"
     inkscape:pageshadow="2"
     inkscape:window-width="875"
     inkscape:window-height="668"
     id="namedview4033"
     showgrid="false"
     inkscape:zoom="7.203125"
     inkscape:cx="32"
     inkscape:cy="32"
     inkscape:window-x="0"
     inkscape:window-y="0"
     inkscape:window-maximized="0"
     inkscape:current-layer="Capa_1" /><g
     id="g3995"
     transform="matrix(1.6691505,0,0,1.6355559,-0.28709356,-1.8100458e-4)"><g
       id="g3997"><g
         id="g3999"><path
           style="fill:#030104"
           d="m 8.661,0.001 c 0.006,0 0.01,0 0.01,0 0.007,0 0.007,0 0.011,0 0.002,0 0.007,0 0.009,0 0,0 0,0 0.004,0 0.019,-0.002 0.027,0 0.039,0 2.213,0 4.367,0.876 5.955,2.42 l 1.758,-1.776 c 0.081,-0.084 0.209,-0.11 0.314,-0.065 0.109,0.044 0.186,0.152 0.186,0.271 l -0.294,6.066 h -5.699 c -0.003,0 -0.011,0 -0.016,0 -0.158,0 -0.291,-0.131 -0.291,-0.296 0,-0.106 0.059,-0.201 0.146,-0.252 l 1.73,-1.751 C 11.497,3.63 10.163,3.089 8.691,3.089 5.698,3.106 3.258,5.559 3.258,8.599 c 0.023,2.978 2.457,5.4 5.481,5.422 1.972,-0.106 3.83,-1.278 4.719,-3.221 l 2.803,1.293 -0.019,0.039 C 14.322,15.845 11.296,17.409 8.05,17.076 3.675,16.728 0.202,13.063 0.172,8.556 0.171,3.876 3.976,0.042 8.661,0.001 z"
           id="path4001"
           inkscape:connector-curvature="0" /></g></g></g><g
     id="g4003"
     transform="translate(0,10.88)" /><g
     id="g4005"
     transform="translate(0,10.88)" /><g
     id="g4007"
     transform="translate(0,10.88)" /><g
     id="g4009"
     transform="translate(0,10.88)" /><g
     id="g4011"
     transform="translate(0,10.88)" /><g
     id="g4013"
     transform="translate(0,10.88)" /><g
     id="g4015"
     transform="translate(0,10.88)" /><g
     id="g4017"
     transform="translate(0,10.88)" /><g
     id="g4019"
     transform="translate(0,10.88)" /><g
     id="g4021"
     transform="translate(0,10.88)" /><g
     id="g4023"
     transform="translate(0,10.88)" /><g
     id="g4025"
     transform="translate(0,10.88)" /><g
     id="g4027"
     transform="translate(0,10.88)" /><g
     id="g4029"
     transform="translate(0,10.88)" /><g
     id="g4031"
     transform="translate(0,10.88)" /></svg>